<mxfile host="app.diagrams.net" modified="2022-10-01T01:09:27.114Z" agent="5.0 (X11; Ubuntu)" etag="9s1tqF-61N6sVT7YroSk" version="20.3.7" type="github">
  <diagram id="R2lEEEUBdFMjLlhIrx00" name="Page-1">
    <mxGraphModel dx="1787" dy="686" grid="1" gridSize="10" guides="1" tooltips="1" connect="1" arrows="1" fold="1" page="0" pageScale="1" pageWidth="850" pageHeight="1100" math="0" shadow="0" extFonts="Permanent Marker^https://fonts.googleapis.com/css?family=Permanent+Marker">
      <root>
        <mxCell id="0" />
        <mxCell id="1" parent="0" />
        <mxCell id="92EWG-0mYJBbQ6URCPlY-90" value="" style="group" vertex="1" connectable="0" parent="1">
          <mxGeometry x="-360" y="150" width="580" height="500" as="geometry" />
        </mxCell>
        <mxCell id="92EWG-0mYJBbQ6URCPlY-46" value="" style="group" vertex="1" connectable="0" parent="92EWG-0mYJBbQ6URCPlY-90">
          <mxGeometry width="350" height="200" as="geometry" />
        </mxCell>
        <mxCell id="92EWG-0mYJBbQ6URCPlY-45" value="" style="group" vertex="1" connectable="0" parent="92EWG-0mYJBbQ6URCPlY-46">
          <mxGeometry x="10" y="-10" width="330" height="100" as="geometry" />
        </mxCell>
        <mxCell id="92EWG-0mYJBbQ6URCPlY-32" value="physian" style="whiteSpace=wrap;html=1;align=center;hachureGap=4;" vertex="1" parent="92EWG-0mYJBbQ6URCPlY-45">
          <mxGeometry x="220" y="60" width="100" height="40" as="geometry" />
        </mxCell>
        <mxCell id="92EWG-0mYJBbQ6URCPlY-34" value="have" style="text;html=1;align=center;verticalAlign=middle;resizable=0;points=[];autosize=1;strokeColor=none;fillColor=none;hachureGap=4;" vertex="1" parent="92EWG-0mYJBbQ6URCPlY-45">
          <mxGeometry x="120" y="50" width="50" height="30" as="geometry" />
        </mxCell>
        <mxCell id="92EWG-0mYJBbQ6URCPlY-37" value="Physician_ID" style="ellipse;whiteSpace=wrap;html=1;align=center;fontStyle=4;hachureGap=4;" vertex="1" parent="92EWG-0mYJBbQ6URCPlY-45">
          <mxGeometry x="220" width="100" height="40" as="geometry" />
        </mxCell>
        <mxCell id="92EWG-0mYJBbQ6URCPlY-44" style="edgeStyle=none;shape=connector;curved=1;rounded=0;orthogonalLoop=1;jettySize=auto;html=1;exitX=0.5;exitY=1;exitDx=0;exitDy=0;entryX=0.5;entryY=0;entryDx=0;entryDy=0;labelBackgroundColor=default;strokeColor=default;fontFamily=Helvetica;fontSize=12;fontColor=default;endArrow=none;startSize=14;endSize=14;sourcePerimeterSpacing=8;targetPerimeterSpacing=8;" edge="1" parent="92EWG-0mYJBbQ6URCPlY-45" source="92EWG-0mYJBbQ6URCPlY-37" target="92EWG-0mYJBbQ6URCPlY-32">
          <mxGeometry relative="1" as="geometry" />
        </mxCell>
        <mxCell id="92EWG-0mYJBbQ6URCPlY-71" value="" style="edgeStyle=entityRelationEdgeStyle;fontSize=12;html=1;endArrow=ERoneToMany;rounded=0;startSize=14;endSize=14;sourcePerimeterSpacing=8;targetPerimeterSpacing=8;elbow=vertical;entryX=0;entryY=0.5;entryDx=0;entryDy=0;exitX=1;exitY=0.5;exitDx=0;exitDy=0;" edge="1" parent="92EWG-0mYJBbQ6URCPlY-45" target="92EWG-0mYJBbQ6URCPlY-32">
          <mxGeometry width="100" height="100" relative="1" as="geometry">
            <mxPoint x="110" y="80" as="sourcePoint" />
            <mxPoint x="190" y="250" as="targetPoint" />
          </mxGeometry>
        </mxCell>
        <mxCell id="92EWG-0mYJBbQ6URCPlY-67" value="" style="edgeStyle=elbowEdgeStyle;fontSize=12;html=1;endArrow=none;startArrow=ERmandOne;rounded=0;labelBackgroundColor=default;strokeColor=default;fontFamily=Helvetica;fontColor=default;startSize=14;endSize=14;sourcePerimeterSpacing=8;shape=connector;exitX=0.12;exitY=1.1;exitDx=0;exitDy=0;elbow=vertical;exitPerimeter=0;" edge="1" parent="92EWG-0mYJBbQ6URCPlY-46" source="92EWG-0mYJBbQ6URCPlY-32">
          <mxGeometry width="100" height="100" relative="1" as="geometry">
            <mxPoint x="242" y="94" as="sourcePoint" />
            <mxPoint x="180" y="120" as="targetPoint" />
          </mxGeometry>
        </mxCell>
        <mxCell id="92EWG-0mYJBbQ6URCPlY-91" value="hospital" style="swimlane;childLayout=stackLayout;horizontal=1;startSize=30;horizontalStack=0;rounded=1;fontSize=14;fontStyle=0;strokeWidth=2;resizeParent=0;resizeLast=1;shadow=0;dashed=0;align=center;hachureGap=4;fontFamily=Helvetica;fontColor=default;" vertex="1" parent="92EWG-0mYJBbQ6URCPlY-46">
          <mxGeometry x="10" y="10" width="110" height="80" as="geometry" />
        </mxCell>
        <mxCell id="92EWG-0mYJBbQ6URCPlY-92" value="+Attribute1&#xa;+Attribute2&#xa;+Attribute3" style="align=left;strokeColor=none;fillColor=none;spacingLeft=4;fontSize=12;verticalAlign=top;resizable=0;rotatable=0;part=1;hachureGap=4;fontFamily=Helvetica;fontColor=default;" vertex="1" parent="92EWG-0mYJBbQ6URCPlY-91">
          <mxGeometry y="30" width="110" height="50" as="geometry" />
        </mxCell>
        <mxCell id="92EWG-0mYJBbQ6URCPlY-54" value="" style="group" vertex="1" connectable="0" parent="92EWG-0mYJBbQ6URCPlY-90">
          <mxGeometry x="10" y="260" width="230" height="100" as="geometry" />
        </mxCell>
        <mxCell id="92EWG-0mYJBbQ6URCPlY-49" value="patient" style="whiteSpace=wrap;html=1;align=center;dashed=0;labelBackgroundColor=default;hachureGap=4;strokeColor=default;strokeWidth=1;fontFamily=Helvetica;fontSize=12;fontColor=default;fillColor=default;" vertex="1" parent="92EWG-0mYJBbQ6URCPlY-54">
          <mxGeometry x="40" width="100" height="40" as="geometry" />
        </mxCell>
        <mxCell id="92EWG-0mYJBbQ6URCPlY-50" value="Patient_ID" style="ellipse;whiteSpace=wrap;html=1;align=center;fontStyle=4;dashed=0;labelBackgroundColor=default;hachureGap=4;strokeColor=default;strokeWidth=1;fontFamily=Helvetica;fontSize=12;fontColor=default;fillColor=default;" vertex="1" parent="92EWG-0mYJBbQ6URCPlY-54">
          <mxGeometry x="-30" y="60" width="100" height="40" as="geometry" />
        </mxCell>
        <mxCell id="92EWG-0mYJBbQ6URCPlY-52" style="edgeStyle=none;shape=connector;curved=1;rounded=0;orthogonalLoop=1;jettySize=auto;html=1;exitX=0.25;exitY=1;exitDx=0;exitDy=0;entryX=0.5;entryY=0;entryDx=0;entryDy=0;labelBackgroundColor=default;strokeColor=default;fontFamily=Helvetica;fontSize=12;fontColor=default;endArrow=none;startSize=14;endSize=14;sourcePerimeterSpacing=8;targetPerimeterSpacing=8;" edge="1" parent="92EWG-0mYJBbQ6URCPlY-54" source="92EWG-0mYJBbQ6URCPlY-49" target="92EWG-0mYJBbQ6URCPlY-50">
          <mxGeometry relative="1" as="geometry" />
        </mxCell>
        <mxCell id="92EWG-0mYJBbQ6URCPlY-51" value="Patient_Name" style="ellipse;whiteSpace=wrap;html=1;align=center;dashed=0;labelBackgroundColor=default;hachureGap=4;strokeColor=default;strokeWidth=1;fontFamily=Helvetica;fontSize=12;fontColor=default;fillColor=default;" vertex="1" parent="92EWG-0mYJBbQ6URCPlY-54">
          <mxGeometry x="130" y="60" width="100" height="40" as="geometry" />
        </mxCell>
        <mxCell id="92EWG-0mYJBbQ6URCPlY-53" style="edgeStyle=none;shape=connector;curved=1;rounded=0;orthogonalLoop=1;jettySize=auto;html=1;exitX=0.75;exitY=1;exitDx=0;exitDy=0;entryX=0.5;entryY=0;entryDx=0;entryDy=0;labelBackgroundColor=default;strokeColor=default;fontFamily=Helvetica;fontSize=12;fontColor=default;endArrow=none;startSize=14;endSize=14;sourcePerimeterSpacing=8;targetPerimeterSpacing=8;" edge="1" parent="92EWG-0mYJBbQ6URCPlY-54" source="92EWG-0mYJBbQ6URCPlY-49" target="92EWG-0mYJBbQ6URCPlY-51">
          <mxGeometry relative="1" as="geometry" />
        </mxCell>
        <mxCell id="92EWG-0mYJBbQ6URCPlY-58" value="" style="edgeStyle=elbowEdgeStyle;fontSize=12;html=1;endArrow=ERzeroToMany;startArrow=none;rounded=0;labelBackgroundColor=default;strokeColor=default;fontFamily=Helvetica;fontColor=default;startSize=14;endSize=14;targetPerimeterSpacing=8;shape=connector;entryX=0.5;entryY=0;entryDx=0;entryDy=0;elbow=vertical;" edge="1" parent="92EWG-0mYJBbQ6URCPlY-90" target="92EWG-0mYJBbQ6URCPlY-49">
          <mxGeometry width="100" height="100" relative="1" as="geometry">
            <mxPoint x="180" y="120" as="sourcePoint" />
            <mxPoint x="360" y="220" as="targetPoint" />
            <Array as="points" />
          </mxGeometry>
        </mxCell>
        <mxCell id="92EWG-0mYJBbQ6URCPlY-36" value="speciality" style="ellipse;whiteSpace=wrap;html=1;align=center;hachureGap=4;" vertex="1" parent="92EWG-0mYJBbQ6URCPlY-90">
          <mxGeometry x="340" y="90" width="100" height="40" as="geometry" />
        </mxCell>
        <mxCell id="92EWG-0mYJBbQ6URCPlY-43" style="edgeStyle=none;shape=connector;curved=1;rounded=0;orthogonalLoop=1;jettySize=auto;html=1;exitX=1;exitY=0.5;exitDx=0;exitDy=0;entryX=0;entryY=0;entryDx=0;entryDy=0;labelBackgroundColor=default;strokeColor=default;fontFamily=Helvetica;fontSize=12;fontColor=default;endArrow=none;startSize=14;endSize=14;sourcePerimeterSpacing=8;targetPerimeterSpacing=8;" edge="1" parent="92EWG-0mYJBbQ6URCPlY-90" source="92EWG-0mYJBbQ6URCPlY-32" target="92EWG-0mYJBbQ6URCPlY-36">
          <mxGeometry relative="1" as="geometry" />
        </mxCell>
        <mxCell id="92EWG-0mYJBbQ6URCPlY-68" value="" style="edgeStyle=orthogonalEdgeStyle;fontSize=12;html=1;endArrow=ERoneToMany;startArrow=none;rounded=0;startSize=14;endSize=14;targetPerimeterSpacing=8;elbow=vertical;entryX=0.5;entryY=1;entryDx=0;entryDy=0;exitX=0.5;exitY=0;exitDx=0;exitDy=0;" edge="1" parent="92EWG-0mYJBbQ6URCPlY-90" target="92EWG-0mYJBbQ6URCPlY-32">
          <mxGeometry width="100" height="100" relative="1" as="geometry">
            <mxPoint x="290" y="250" as="sourcePoint" />
            <mxPoint x="280" y="70" as="targetPoint" />
          </mxGeometry>
        </mxCell>
        <mxCell id="92EWG-0mYJBbQ6URCPlY-70" value="" style="edgeStyle=orthogonalEdgeStyle;fontSize=12;html=1;endArrow=none;startArrow=ERzeroToMany;rounded=0;startSize=14;endSize=14;sourcePerimeterSpacing=8;elbow=vertical;exitX=1;exitY=0.5;exitDx=0;exitDy=0;" edge="1" parent="92EWG-0mYJBbQ6URCPlY-90" source="92EWG-0mYJBbQ6URCPlY-49">
          <mxGeometry width="100" height="100" relative="1" as="geometry">
            <mxPoint x="170" y="280" as="sourcePoint" />
            <mxPoint x="290" y="250" as="targetPoint" />
          </mxGeometry>
        </mxCell>
        <mxCell id="92EWG-0mYJBbQ6URCPlY-74" value="treatment_Detail" style="shape=ext;margin=3;double=1;whiteSpace=wrap;html=1;align=center;hachureGap=4;" vertex="1" parent="92EWG-0mYJBbQ6URCPlY-90">
          <mxGeometry x="340" y="380" width="140" height="40" as="geometry" />
        </mxCell>
        <mxCell id="92EWG-0mYJBbQ6URCPlY-75" value="Time" style="ellipse;whiteSpace=wrap;html=1;align=center;hachureGap=4;" vertex="1" parent="92EWG-0mYJBbQ6URCPlY-90">
          <mxGeometry x="360" y="460" width="100" height="40" as="geometry" />
        </mxCell>
        <mxCell id="92EWG-0mYJBbQ6URCPlY-80" style="edgeStyle=none;shape=connector;rounded=0;orthogonalLoop=1;jettySize=auto;html=1;exitX=0.75;exitY=1;exitDx=0;exitDy=0;entryX=0.5;entryY=0;entryDx=0;entryDy=0;labelBackgroundColor=default;strokeColor=default;fontFamily=Helvetica;fontSize=11;fontColor=default;endArrow=none;startSize=14;endSize=14;sourcePerimeterSpacing=8;targetPerimeterSpacing=8;elbow=vertical;" edge="1" parent="92EWG-0mYJBbQ6URCPlY-90" source="92EWG-0mYJBbQ6URCPlY-74" target="92EWG-0mYJBbQ6URCPlY-75">
          <mxGeometry relative="1" as="geometry" />
        </mxCell>
        <mxCell id="92EWG-0mYJBbQ6URCPlY-76" value="Date" style="ellipse;whiteSpace=wrap;html=1;align=center;hachureGap=4;" vertex="1" parent="92EWG-0mYJBbQ6URCPlY-90">
          <mxGeometry x="470" y="300" width="100" height="40" as="geometry" />
        </mxCell>
        <mxCell id="92EWG-0mYJBbQ6URCPlY-82" style="edgeStyle=none;shape=connector;rounded=0;orthogonalLoop=1;jettySize=auto;html=1;exitX=1;exitY=0.25;exitDx=0;exitDy=0;entryX=0.35;entryY=1.05;entryDx=0;entryDy=0;entryPerimeter=0;labelBackgroundColor=default;strokeColor=default;fontFamily=Helvetica;fontSize=11;fontColor=default;endArrow=none;startSize=14;endSize=14;sourcePerimeterSpacing=8;targetPerimeterSpacing=8;elbow=vertical;" edge="1" parent="92EWG-0mYJBbQ6URCPlY-90" source="92EWG-0mYJBbQ6URCPlY-74" target="92EWG-0mYJBbQ6URCPlY-76">
          <mxGeometry relative="1" as="geometry" />
        </mxCell>
        <mxCell id="92EWG-0mYJBbQ6URCPlY-77" value="Result" style="ellipse;whiteSpace=wrap;html=1;align=center;hachureGap=4;" vertex="1" parent="92EWG-0mYJBbQ6URCPlY-90">
          <mxGeometry x="480" y="440" width="100" height="40" as="geometry" />
        </mxCell>
        <mxCell id="92EWG-0mYJBbQ6URCPlY-86" value="admitted by" style="text;html=1;align=center;verticalAlign=middle;resizable=0;points=[];autosize=1;strokeColor=none;fillColor=none;hachureGap=4;fontFamily=Helvetica;fontSize=11;fontColor=default;" vertex="1" parent="92EWG-0mYJBbQ6URCPlY-90">
          <mxGeometry x="95" y="165" width="90" height="30" as="geometry" />
        </mxCell>
        <mxCell id="92EWG-0mYJBbQ6URCPlY-87" value="treated by" style="text;html=1;align=center;verticalAlign=middle;resizable=0;points=[];autosize=1;strokeColor=none;fillColor=none;hachureGap=4;fontFamily=Helvetica;fontSize=11;fontColor=default;" vertex="1" parent="92EWG-0mYJBbQ6URCPlY-90">
          <mxGeometry x="280" y="230" width="80" height="30" as="geometry" />
        </mxCell>
        <mxCell id="92EWG-0mYJBbQ6URCPlY-88" value="got treatment" style="text;html=1;align=center;verticalAlign=middle;resizable=0;points=[];autosize=1;strokeColor=none;fillColor=none;hachureGap=4;fontFamily=Helvetica;fontSize=11;fontColor=default;" vertex="1" parent="92EWG-0mYJBbQ6URCPlY-90">
          <mxGeometry x="110" y="400" width="100" height="30" as="geometry" />
        </mxCell>
        <mxCell id="92EWG-0mYJBbQ6URCPlY-81" style="edgeStyle=none;shape=connector;rounded=0;orthogonalLoop=1;jettySize=auto;html=1;exitX=1;exitY=0.75;exitDx=0;exitDy=0;entryX=0.38;entryY=0.075;entryDx=0;entryDy=0;entryPerimeter=0;labelBackgroundColor=default;strokeColor=default;fontFamily=Helvetica;fontSize=11;fontColor=default;endArrow=none;startSize=14;endSize=14;sourcePerimeterSpacing=8;targetPerimeterSpacing=8;elbow=vertical;" edge="1" parent="92EWG-0mYJBbQ6URCPlY-90" source="92EWG-0mYJBbQ6URCPlY-74" target="92EWG-0mYJBbQ6URCPlY-77">
          <mxGeometry relative="1" as="geometry" />
        </mxCell>
        <mxCell id="92EWG-0mYJBbQ6URCPlY-89" value="" style="edgeStyle=orthogonalEdgeStyle;fontSize=12;html=1;endArrow=ERoneToMany;startArrow=ERmandOne;rounded=0;labelBackgroundColor=default;strokeColor=default;fontFamily=Helvetica;fontColor=default;startSize=14;endSize=14;sourcePerimeterSpacing=8;targetPerimeterSpacing=8;shape=connector;elbow=vertical;entryX=0;entryY=0.5;entryDx=0;entryDy=0;exitX=0.5;exitY=1;exitDx=0;exitDy=0;" edge="1" parent="92EWG-0mYJBbQ6URCPlY-90" source="92EWG-0mYJBbQ6URCPlY-49" target="92EWG-0mYJBbQ6URCPlY-74">
          <mxGeometry width="100" height="100" relative="1" as="geometry">
            <mxPoint x="90" y="370" as="sourcePoint" />
            <mxPoint x="210" y="220" as="targetPoint" />
          </mxGeometry>
        </mxCell>
        <mxCell id="92EWG-0mYJBbQ6URCPlY-95" value="physician" style="swimlane;childLayout=stackLayout;horizontal=1;startSize=20;horizontalStack=0;rounded=1;fontSize=14;fontStyle=0;strokeWidth=2;resizeParent=0;resizeLast=1;shadow=0;dashed=0;align=center;hachureGap=4;fontFamily=Helvetica;fontColor=default;" vertex="1" parent="1">
          <mxGeometry x="120" y="160" width="110" height="80" as="geometry" />
        </mxCell>
        <mxCell id="92EWG-0mYJBbQ6URCPlY-96" value="+&#xa;+Attribute2&#xa;+Attribute3" style="align=left;strokeColor=none;fillColor=none;spacingLeft=4;fontSize=12;verticalAlign=top;resizable=0;rotatable=0;part=1;hachureGap=4;fontFamily=Helvetica;fontColor=default;" vertex="1" parent="92EWG-0mYJBbQ6URCPlY-95">
          <mxGeometry y="20" width="110" height="60" as="geometry" />
        </mxCell>
        <mxCell id="92EWG-0mYJBbQ6URCPlY-101" value="THEATER_GROUP" style="swimlane;childLayout=stackLayout;horizontal=1;startSize=30;horizontalStack=0;rounded=1;fontSize=14;fontStyle=0;strokeWidth=2;resizeParent=0;resizeLast=1;shadow=0;dashed=0;align=center;hachureGap=4;fontFamily=Helvetica;fontColor=default;" vertex="1" parent="1">
          <mxGeometry x="-210" y="730" width="160" height="80" as="geometry" />
        </mxCell>
        <mxCell id="92EWG-0mYJBbQ6URCPlY-103" value="THEATER" style="swimlane;childLayout=stackLayout;horizontal=1;startSize=30;horizontalStack=0;rounded=1;fontSize=14;fontStyle=0;strokeWidth=2;resizeParent=0;resizeLast=1;shadow=0;dashed=0;align=center;hachureGap=4;fontFamily=Helvetica;fontColor=default;" vertex="1" parent="1">
          <mxGeometry x="190" y="730" width="160" height="90" as="geometry" />
        </mxCell>
        <mxCell id="92EWG-0mYJBbQ6URCPlY-104" value="THEATER_ID&#xa;NAME&#xa;LOCATION" style="align=left;strokeColor=none;fillColor=none;spacingLeft=4;fontSize=12;verticalAlign=top;resizable=0;rotatable=0;part=1;hachureGap=4;fontFamily=Helvetica;fontColor=default;" vertex="1" parent="92EWG-0mYJBbQ6URCPlY-103">
          <mxGeometry y="30" width="160" height="60" as="geometry" />
        </mxCell>
        <mxCell id="92EWG-0mYJBbQ6URCPlY-106" value="SCREEN" style="swimlane;childLayout=stackLayout;horizontal=1;startSize=30;horizontalStack=0;rounded=1;fontSize=14;fontStyle=0;strokeWidth=2;resizeParent=0;resizeLast=1;shadow=0;dashed=0;align=center;hachureGap=4;fontFamily=Helvetica;fontColor=default;" vertex="1" parent="1">
          <mxGeometry x="410" y="840" width="160" height="90" as="geometry" />
        </mxCell>
        <mxCell id="92EWG-0mYJBbQ6URCPlY-107" value="Screen_Number&#xa;THEATER_ID&#xa;Seeting Capacity&#xa;" style="align=left;strokeColor=none;fillColor=none;spacingLeft=4;fontSize=12;verticalAlign=top;resizable=0;rotatable=0;part=1;hachureGap=4;fontFamily=Helvetica;fontColor=default;" vertex="1" parent="92EWG-0mYJBbQ6URCPlY-106">
          <mxGeometry y="30" width="160" height="60" as="geometry" />
        </mxCell>
        <mxCell id="92EWG-0mYJBbQ6URCPlY-108" value="Time-Slot" style="swimlane;childLayout=stackLayout;horizontal=1;startSize=30;horizontalStack=0;rounded=1;fontSize=14;fontStyle=0;strokeWidth=2;resizeParent=0;resizeLast=1;shadow=0;dashed=0;align=center;hachureGap=4;fontFamily=Helvetica;fontColor=default;" vertex="1" parent="1">
          <mxGeometry x="180" y="935" width="160" height="100" as="geometry" />
        </mxCell>
        <mxCell id="92EWG-0mYJBbQ6URCPlY-109" value="Start-Time&#xa;End-time&#xa;Attendance&#xa;Price" style="align=left;strokeColor=none;fillColor=none;spacingLeft=4;fontSize=12;verticalAlign=top;resizable=0;rotatable=0;part=1;hachureGap=4;fontFamily=Helvetica;fontColor=default;" vertex="1" parent="92EWG-0mYJBbQ6URCPlY-108">
          <mxGeometry y="30" width="160" height="70" as="geometry" />
        </mxCell>
        <mxCell id="92EWG-0mYJBbQ6URCPlY-110" value="Movie" style="swimlane;childLayout=stackLayout;horizontal=1;startSize=30;horizontalStack=0;rounded=1;fontSize=14;fontStyle=0;strokeWidth=2;resizeParent=0;resizeLast=1;shadow=0;dashed=0;align=center;hachureGap=4;fontFamily=Helvetica;fontColor=default;" vertex="1" parent="1">
          <mxGeometry x="-195" y="940" width="130" height="60" as="geometry" />
        </mxCell>
        <mxCell id="92EWG-0mYJBbQ6URCPlY-111" value="Movie_ID" style="align=left;strokeColor=none;fillColor=none;spacingLeft=4;fontSize=12;verticalAlign=top;resizable=0;rotatable=0;part=1;hachureGap=4;fontFamily=Helvetica;fontColor=default;" vertex="1" parent="92EWG-0mYJBbQ6URCPlY-110">
          <mxGeometry y="30" width="130" height="30" as="geometry" />
        </mxCell>
        <mxCell id="92EWG-0mYJBbQ6URCPlY-129" style="edgeStyle=orthogonalEdgeStyle;shape=connector;rounded=0;orthogonalLoop=1;jettySize=auto;html=1;exitX=0.75;exitY=0;exitDx=0;exitDy=0;entryX=1;entryY=0;entryDx=0;entryDy=0;labelBackgroundColor=default;strokeColor=default;fontFamily=Helvetica;fontSize=11;fontColor=default;endArrow=none;startSize=14;endSize=14;sourcePerimeterSpacing=8;targetPerimeterSpacing=8;elbow=vertical;" edge="1" parent="92EWG-0mYJBbQ6URCPlY-110" source="92EWG-0mYJBbQ6URCPlY-111" target="92EWG-0mYJBbQ6URCPlY-111">
          <mxGeometry relative="1" as="geometry" />
        </mxCell>
        <mxCell id="92EWG-0mYJBbQ6URCPlY-112" value="Trailer" style="swimlane;childLayout=stackLayout;horizontal=1;startSize=30;horizontalStack=0;rounded=1;fontSize=14;fontStyle=0;strokeWidth=2;resizeParent=0;resizeLast=1;shadow=0;dashed=0;align=center;hachureGap=4;fontFamily=Helvetica;fontColor=default;" vertex="1" parent="1">
          <mxGeometry x="-340" y="1150" width="100" height="70" as="geometry" />
        </mxCell>
        <mxCell id="92EWG-0mYJBbQ6URCPlY-113" value="title&#xa;duration&#xa;" style="align=left;strokeColor=none;fillColor=none;spacingLeft=4;fontSize=12;verticalAlign=top;resizable=0;rotatable=0;part=1;hachureGap=4;fontFamily=Helvetica;fontColor=default;" vertex="1" parent="92EWG-0mYJBbQ6URCPlY-112">
          <mxGeometry y="30" width="100" height="40" as="geometry" />
        </mxCell>
        <mxCell id="92EWG-0mYJBbQ6URCPlY-114" value="Feature" style="swimlane;childLayout=stackLayout;horizontal=1;startSize=30;horizontalStack=0;rounded=1;fontSize=14;fontStyle=0;strokeWidth=2;resizeParent=0;resizeLast=1;shadow=0;dashed=0;align=center;hachureGap=4;fontFamily=Helvetica;fontColor=default;" vertex="1" parent="1">
          <mxGeometry x="-182.5" y="1150" width="105" height="70" as="geometry" />
        </mxCell>
        <mxCell id="92EWG-0mYJBbQ6URCPlY-115" value="title&#xa;duration" style="align=left;strokeColor=none;fillColor=none;spacingLeft=4;fontSize=12;verticalAlign=top;resizable=0;rotatable=0;part=1;hachureGap=4;fontFamily=Helvetica;fontColor=default;" vertex="1" parent="92EWG-0mYJBbQ6URCPlY-114">
          <mxGeometry y="30" width="105" height="40" as="geometry" />
        </mxCell>
        <mxCell id="92EWG-0mYJBbQ6URCPlY-116" value="Commercial" style="swimlane;childLayout=stackLayout;horizontal=1;startSize=30;horizontalStack=0;rounded=1;fontSize=14;fontStyle=0;strokeWidth=2;resizeParent=0;resizeLast=1;shadow=0;dashed=0;align=center;hachureGap=4;fontFamily=Helvetica;fontColor=default;" vertex="1" parent="1">
          <mxGeometry x="-20" y="1150" width="105" height="70" as="geometry" />
        </mxCell>
        <mxCell id="92EWG-0mYJBbQ6URCPlY-117" value="title&#xa;duration" style="align=left;strokeColor=none;fillColor=none;spacingLeft=4;fontSize=12;verticalAlign=top;resizable=0;rotatable=0;part=1;hachureGap=4;fontFamily=Helvetica;fontColor=default;" vertex="1" parent="92EWG-0mYJBbQ6URCPlY-116">
          <mxGeometry y="30" width="105" height="40" as="geometry" />
        </mxCell>
        <mxCell id="92EWG-0mYJBbQ6URCPlY-120" style="edgeStyle=orthogonalEdgeStyle;shape=connector;rounded=0;orthogonalLoop=1;jettySize=auto;html=1;exitX=0;exitY=1;exitDx=0;exitDy=0;entryX=0.65;entryY=-0.04;entryDx=0;entryDy=0;entryPerimeter=0;labelBackgroundColor=default;strokeColor=default;fontFamily=Helvetica;fontSize=11;fontColor=default;endArrow=none;startSize=14;endSize=14;sourcePerimeterSpacing=8;targetPerimeterSpacing=8;elbow=vertical;" edge="1" parent="1" source="92EWG-0mYJBbQ6URCPlY-118" target="92EWG-0mYJBbQ6URCPlY-112">
          <mxGeometry relative="1" as="geometry" />
        </mxCell>
        <mxCell id="92EWG-0mYJBbQ6URCPlY-121" style="edgeStyle=orthogonalEdgeStyle;shape=connector;rounded=0;orthogonalLoop=1;jettySize=auto;html=1;exitX=0.5;exitY=1;exitDx=0;exitDy=0;entryX=0.5;entryY=0;entryDx=0;entryDy=0;labelBackgroundColor=default;strokeColor=default;fontFamily=Helvetica;fontSize=11;fontColor=default;endArrow=none;startSize=14;endSize=14;sourcePerimeterSpacing=8;targetPerimeterSpacing=8;elbow=vertical;" edge="1" parent="1" source="92EWG-0mYJBbQ6URCPlY-118" target="92EWG-0mYJBbQ6URCPlY-114">
          <mxGeometry relative="1" as="geometry" />
        </mxCell>
        <mxCell id="92EWG-0mYJBbQ6URCPlY-123" style="edgeStyle=orthogonalEdgeStyle;shape=connector;rounded=0;orthogonalLoop=1;jettySize=auto;html=1;exitX=1;exitY=1;exitDx=0;exitDy=0;labelBackgroundColor=default;strokeColor=default;fontFamily=Helvetica;fontSize=11;fontColor=default;endArrow=none;startSize=14;endSize=14;sourcePerimeterSpacing=8;targetPerimeterSpacing=8;elbow=vertical;entryX=0.362;entryY=0.02;entryDx=0;entryDy=0;entryPerimeter=0;" edge="1" parent="1" source="92EWG-0mYJBbQ6URCPlY-118" target="92EWG-0mYJBbQ6URCPlY-116">
          <mxGeometry relative="1" as="geometry">
            <mxPoint x="20" y="1102" as="targetPoint" />
          </mxGeometry>
        </mxCell>
        <mxCell id="92EWG-0mYJBbQ6URCPlY-118" value="D" style="ellipse;whiteSpace=wrap;html=1;aspect=fixed;hachureGap=4;fontFamily=Helvetica;fontSize=11;fontColor=default;" vertex="1" parent="1">
          <mxGeometry x="-150" y="1050" width="40" height="40" as="geometry" />
        </mxCell>
        <mxCell id="92EWG-0mYJBbQ6URCPlY-119" style="edgeStyle=orthogonalEdgeStyle;shape=connector;rounded=0;orthogonalLoop=1;jettySize=auto;html=1;exitX=0.5;exitY=1;exitDx=0;exitDy=0;entryX=0.5;entryY=0;entryDx=0;entryDy=0;labelBackgroundColor=default;strokeColor=default;fontFamily=Helvetica;fontSize=11;fontColor=default;endArrow=none;startSize=14;endSize=14;sourcePerimeterSpacing=8;targetPerimeterSpacing=8;elbow=vertical;" edge="1" parent="1" source="92EWG-0mYJBbQ6URCPlY-111" target="92EWG-0mYJBbQ6URCPlY-118">
          <mxGeometry relative="1" as="geometry" />
        </mxCell>
        <mxCell id="92EWG-0mYJBbQ6URCPlY-125" value="type=?" style="text;html=1;align=center;verticalAlign=middle;resizable=0;points=[];autosize=1;strokeColor=none;fillColor=none;hachureGap=4;fontFamily=Helvetica;fontSize=11;fontColor=default;" vertex="1" parent="1">
          <mxGeometry x="-137.5" y="1020" width="60" height="30" as="geometry" />
        </mxCell>
        <mxCell id="92EWG-0mYJBbQ6URCPlY-126" value="t" style="text;html=1;align=center;verticalAlign=middle;resizable=0;points=[];autosize=1;strokeColor=none;fillColor=none;hachureGap=4;fontFamily=Helvetica;fontSize=11;fontColor=default;" vertex="1" parent="1">
          <mxGeometry x="-270" y="1060" width="30" height="30" as="geometry" />
        </mxCell>
        <mxCell id="92EWG-0mYJBbQ6URCPlY-127" value="f" style="text;html=1;align=center;verticalAlign=middle;resizable=0;points=[];autosize=1;strokeColor=none;fillColor=none;hachureGap=4;fontFamily=Helvetica;fontSize=11;fontColor=default;" vertex="1" parent="1">
          <mxGeometry x="-135" y="1095" width="30" height="30" as="geometry" />
        </mxCell>
        <mxCell id="92EWG-0mYJBbQ6URCPlY-128" value="c" style="text;html=1;align=center;verticalAlign=middle;resizable=0;points=[];autosize=1;strokeColor=none;fillColor=none;hachureGap=4;fontFamily=Helvetica;fontSize=11;fontColor=default;" vertex="1" parent="1">
          <mxGeometry x="15" y="1095" width="30" height="30" as="geometry" />
        </mxCell>
        <mxCell id="92EWG-0mYJBbQ6URCPlY-131" value="" style="edgeStyle=entityRelationEdgeStyle;fontSize=12;html=1;endArrow=ERoneToMany;startArrow=ERmandOne;rounded=0;labelBackgroundColor=default;strokeColor=default;fontFamily=Helvetica;fontColor=default;startSize=14;endSize=14;sourcePerimeterSpacing=8;targetPerimeterSpacing=8;shape=connector;elbow=vertical;exitX=1;exitY=0.25;exitDx=0;exitDy=0;entryX=0.013;entryY=0.133;entryDx=0;entryDy=0;entryPerimeter=0;" edge="1" parent="1" source="92EWG-0mYJBbQ6URCPlY-104" target="92EWG-0mYJBbQ6URCPlY-106">
          <mxGeometry width="100" height="100" relative="1" as="geometry">
            <mxPoint x="400" y="840" as="sourcePoint" />
            <mxPoint x="490" y="790" as="targetPoint" />
          </mxGeometry>
        </mxCell>
        <mxCell id="92EWG-0mYJBbQ6URCPlY-132" value="" style="edgeStyle=entityRelationEdgeStyle;fontSize=12;html=1;endArrow=ERoneToMany;startArrow=ERmandOne;rounded=0;labelBackgroundColor=default;strokeColor=default;fontFamily=Helvetica;fontColor=default;startSize=14;endSize=14;sourcePerimeterSpacing=8;targetPerimeterSpacing=8;shape=connector;elbow=vertical;exitX=1;exitY=0.5;exitDx=0;exitDy=0;entryX=0;entryY=0.25;entryDx=0;entryDy=0;" edge="1" parent="1" source="92EWG-0mYJBbQ6URCPlY-101" target="92EWG-0mYJBbQ6URCPlY-104">
          <mxGeometry width="100" height="100" relative="1" as="geometry">
            <mxPoint x="-50" y="763.03" as="sourcePoint" />
            <mxPoint x="12.079999999999927" y="840" as="targetPoint" />
          </mxGeometry>
        </mxCell>
        <mxCell id="92EWG-0mYJBbQ6URCPlY-136" value="NAME" style="text;html=1;align=center;verticalAlign=middle;resizable=0;points=[];autosize=1;strokeColor=none;fillColor=none;hachureGap=4;fontFamily=Helvetica;fontSize=11;fontColor=default;" vertex="1" parent="1">
          <mxGeometry x="-210" y="765" width="60" height="30" as="geometry" />
        </mxCell>
        <mxCell id="92EWG-0mYJBbQ6URCPlY-137" value="have" style="text;html=1;align=center;verticalAlign=middle;resizable=0;points=[];autosize=1;strokeColor=none;fillColor=none;hachureGap=4;fontFamily=Helvetica;fontSize=11;fontColor=default;" vertex="1" parent="1">
          <mxGeometry x="5" y="735" width="50" height="30" as="geometry" />
        </mxCell>
        <mxCell id="92EWG-0mYJBbQ6URCPlY-138" value="have" style="text;html=1;align=center;verticalAlign=middle;resizable=0;points=[];autosize=1;strokeColor=none;fillColor=none;hachureGap=4;fontFamily=Helvetica;fontSize=11;fontColor=default;" vertex="1" parent="1">
          <mxGeometry x="365" y="745" width="50" height="30" as="geometry" />
        </mxCell>
        <mxCell id="92EWG-0mYJBbQ6URCPlY-139" value="of" style="text;html=1;align=center;verticalAlign=middle;resizable=0;points=[];autosize=1;strokeColor=none;fillColor=none;hachureGap=4;fontFamily=Helvetica;fontSize=11;fontColor=default;" vertex="1" parent="1">
          <mxGeometry x="380" y="810" width="30" height="30" as="geometry" />
        </mxCell>
        <mxCell id="92EWG-0mYJBbQ6URCPlY-140" value="in time slot of" style="text;html=1;align=center;verticalAlign=middle;resizable=0;points=[];autosize=1;strokeColor=none;fillColor=none;hachureGap=4;fontFamily=Helvetica;fontSize=11;fontColor=default;" vertex="1" parent="1">
          <mxGeometry x="310" y="870" width="100" height="30" as="geometry" />
        </mxCell>
        <mxCell id="92EWG-0mYJBbQ6URCPlY-141" value="of the screen" style="text;html=1;align=center;verticalAlign=middle;resizable=0;points=[];autosize=1;strokeColor=none;fillColor=none;hachureGap=4;fontFamily=Helvetica;fontSize=11;fontColor=default;" vertex="1" parent="1">
          <mxGeometry x="345" y="990" width="100" height="30" as="geometry" />
        </mxCell>
        <mxCell id="92EWG-0mYJBbQ6URCPlY-142" value="showing movies" style="text;html=1;align=center;verticalAlign=middle;resizable=0;points=[];autosize=1;strokeColor=none;fillColor=none;hachureGap=4;fontFamily=Helvetica;fontSize=11;fontColor=default;" vertex="1" parent="1">
          <mxGeometry x="75" y="935" width="110" height="30" as="geometry" />
        </mxCell>
        <mxCell id="92EWG-0mYJBbQ6URCPlY-143" value="is shown&amp;nbsp; in the slot" style="text;html=1;align=center;verticalAlign=middle;resizable=0;points=[];autosize=1;strokeColor=none;fillColor=none;hachureGap=4;fontFamily=Helvetica;fontSize=11;fontColor=default;" vertex="1" parent="1">
          <mxGeometry x="-90" y="910" width="130" height="30" as="geometry" />
        </mxCell>
        <mxCell id="92EWG-0mYJBbQ6URCPlY-144" value="SEQUENCE" style="swimlane;childLayout=stackLayout;horizontal=1;startSize=30;horizontalStack=0;rounded=1;fontSize=14;fontStyle=0;strokeWidth=2;resizeParent=0;resizeLast=1;shadow=0;dashed=0;align=center;hachureGap=4;fontFamily=Helvetica;fontColor=default;" vertex="1" parent="1">
          <mxGeometry x="185" y="1110" width="160" height="80" as="geometry" />
        </mxCell>
        <mxCell id="92EWG-0mYJBbQ6URCPlY-145" value="seq_NO&#xa;Movie_ID&#xa;" style="align=left;strokeColor=none;fillColor=none;spacingLeft=4;fontSize=12;verticalAlign=top;resizable=0;rotatable=0;part=1;hachureGap=4;fontFamily=Helvetica;fontColor=default;" vertex="1" parent="92EWG-0mYJBbQ6URCPlY-144">
          <mxGeometry y="30" width="160" height="50" as="geometry" />
        </mxCell>
        <mxCell id="92EWG-0mYJBbQ6URCPlY-148" value="" style="edgeStyle=entityRelationEdgeStyle;fontSize=12;html=1;endArrow=ERoneToMany;startArrow=ERmandOne;rounded=0;labelBackgroundColor=default;strokeColor=default;fontFamily=Helvetica;fontColor=default;startSize=14;endSize=14;sourcePerimeterSpacing=8;targetPerimeterSpacing=8;shape=connector;elbow=vertical;exitX=1;exitY=0.75;exitDx=0;exitDy=0;" edge="1" parent="1" source="92EWG-0mYJBbQ6URCPlY-109">
          <mxGeometry width="100" height="100" relative="1" as="geometry">
            <mxPoint x="480" y="1170" as="sourcePoint" />
            <mxPoint x="180" y="1130" as="targetPoint" />
          </mxGeometry>
        </mxCell>
        <mxCell id="92EWG-0mYJBbQ6URCPlY-150" value="" style="edgeStyle=entityRelationEdgeStyle;fontSize=12;html=1;endArrow=ERoneToMany;startArrow=ERmandOne;rounded=0;labelBackgroundColor=default;strokeColor=default;fontFamily=Helvetica;fontColor=default;startSize=14;endSize=14;sourcePerimeterSpacing=8;targetPerimeterSpacing=8;shape=connector;elbow=vertical;entryX=1;entryY=0.25;entryDx=0;entryDy=0;exitX=0;exitY=0.25;exitDx=0;exitDy=0;" edge="1" parent="1" source="92EWG-0mYJBbQ6URCPlY-109" target="92EWG-0mYJBbQ6URCPlY-111">
          <mxGeometry width="100" height="100" relative="1" as="geometry">
            <mxPoint x="90" y="1020" as="sourcePoint" />
            <mxPoint x="-40" y="970" as="targetPoint" />
          </mxGeometry>
        </mxCell>
        <mxCell id="92EWG-0mYJBbQ6URCPlY-151" value="" style="edgeStyle=entityRelationEdgeStyle;fontSize=12;html=1;endArrow=ERoneToMany;startArrow=ERmandOne;rounded=0;labelBackgroundColor=default;strokeColor=default;fontFamily=Helvetica;fontColor=default;startSize=14;endSize=14;sourcePerimeterSpacing=8;targetPerimeterSpacing=8;shape=connector;elbow=vertical;entryX=1.038;entryY=0.19;entryDx=0;entryDy=0;exitX=0;exitY=0.75;exitDx=0;exitDy=0;entryPerimeter=0;" edge="1" parent="1" source="92EWG-0mYJBbQ6URCPlY-107" target="92EWG-0mYJBbQ6URCPlY-108">
          <mxGeometry width="100" height="100" relative="1" as="geometry">
            <mxPoint x="345" y="900" as="sourcePoint" />
            <mxPoint x="100" y="890" as="targetPoint" />
          </mxGeometry>
        </mxCell>
      </root>
    </mxGraphModel>
  </diagram>
</mxfile>
